<?xml version="1.0" encoding="UTF-8"?>
<svg id="Ebene_2" data-name="Ebene 2" xmlns="http://www.w3.org/2000/svg" viewBox="0 0 288 314.84">
  <defs>
    <style>
      .cls-1 {
        fill: none;
      }

      .cls-2 {
        fill: #c33;
      }
    </style>
  </defs>
  <g id="cw_Kopie" data-name="cw Kopie">
    <g>
      <path class="cls-2" d="M71.44,19.6l-.58-.98c.38.21.76.43,1.14.65-.19.11-.38.22-.56.33Z"/>
      <path class="cls-2" d="M96.45,250.92c-7.48,6.75-15.67,12.73-24.45,17.81-.38.22-.76.44-1.14.65l.58-.98,13.6-23.33c3.68,2.16,7.48,4.11,11.41,5.85Z"/>
      <path class="cls-1" d="M85.04,245.07l-13.6,23.33c.18.11.37.22.56.33,8.78-5.08,16.97-11.06,24.45-17.81-3.93-1.74-7.73-3.69-11.41-5.85ZM157.5.63c-4.44-.42-8.95-.63-13.5-.63s-9.06.21-13.5.63v27.15c4.43-.52,8.93-.78,13.5-.78s9.07.26,13.5.78c12.19,1.39,23.8,4.66,34.55,9.52,3.75,1.68,7.39,3.56,10.91,5.63l13.6-23.32h0C198.92,9.28,178.89,2.61,157.5.63ZM202.5,245.35c.15-.09.31-.18.46-.28l-.46-.78v1.06Z"/>
      <path class="cls-2" d="M130.5.63v27.15c-12,1.37-23.44,4.56-34.05,9.3-3.93,1.74-7.73,3.69-11.41,5.85-34.72,20.28-58.04,57.95-58.04,101.07s23.32,80.79,58.04,101.07l-13.6,23.33C28.71,243.43,0,197.07,0,144S28.71,44.57,71.44,19.6c.18-.11.37-.22.56-.33C89.5,9.14,109.33,2.59,130.5.63Z"/>
      <path class="cls-2" d="M202.96,245.07c-.15.1-.31.19-.46.28v-1.06l.46.78Z"/>
      <path class="cls-2" d="M202.5,244.29l.46.78c-.15.1-.31.19-.46.28v-1.06Z"/>
      <path class="cls-2" d="M216.56,19.61l-13.6,23.32c-3.52-2.07-7.16-3.95-10.91-5.63,7.5-6.72,15.71-12.66,24.51-17.69Z"/>
      <path class="cls-2" d="M217.72,270.37c-.77-.43-1.53-.87-2.29-1.32.38-.21.76-.43,1.13-.65l1.16,1.97Z"/>
      <path class="cls-2" d="M70.86,18.62c.38.21.76.43,1.14.65-.19.11-.38.22-.56.33l-.58-.98Z"/>
      <path class="cls-1" d="M216.56,19.6h0s-13.6,23.33-13.6,23.33c-3.52-2.07-7.16-3.95-10.91-5.63-10.75-4.86-22.36-8.13-34.55-9.52-4.43-.52-8.93-.78-13.5-.78s-9.07.26-13.5.78V.63c4.44-.42,8.95-.63,13.5-.63s9.06.21,13.5.63c21.39,1.98,41.42,8.65,59.06,18.97Z"/>
      <path class="cls-1" d="M130.5,27.78v232.44c-12-1.37-23.44-4.56-34.05-9.3-3.93-1.74-7.73-3.69-11.41-5.85-34.72-20.28-58.04-57.95-58.04-101.07s23.32-80.79,58.04-101.07c3.68-2.16,7.48-4.11,11.41-5.85,10.61-4.74,22.05-7.93,34.05-9.3Z"/>
      <path class="cls-1" d="M261,144c0,27.47-9.47,52.72-25.33,72.68h0c-1.95,2.48-4.01,4.87-6.17,7.17v-100.28l-.03-.02-13.47,19.54h0s-13.5,19.62-13.5,19.62l-25.77,37.41-12.51,18.15h0s-6.72,9.77-6.72,9.77V27.78c12.19,1.39,23.8,4.66,34.55,9.52,3.75,1.68,7.39,3.56,10.91,5.63,12.6,7.36,23.7,17.01,32.71,28.38h0c15.86,19.97,25.33,45.22,25.33,72.69Z"/>
      <path class="cls-1" d="M202.5,210.31v35.04c-3.69,2.13-7.51,4.07-11.44,5.79-6.86,3.03-14.07,5.41-21.55,7.06l11.68-16.96,10.58-15.35,10.73-15.58Z"/>
      <path class="cls-1" d="M202.5,245.35v30.27c-13.97,6.22-29.11,10.28-45,11.75-2.79.27-5.61.45-8.45.54l8.45-12.27,12.01-17.44c7.48-1.65,14.69-4.03,21.55-7.06,3.93-1.72,7.75-3.66,11.44-5.79Z"/>
      <path class="cls-2" d="M96.45,250.92c-7.48,6.75-15.67,12.73-24.45,17.81-.38.22-.76.44-1.14.65l.58-.98,13.6-23.33c3.68,2.16,7.48,4.11,11.41,5.85Z"/>
      <path class="cls-2" d="M202.5,244.29l.46.78c-.15.1-.31.19-.46.28v-1.06Z"/>
      <path class="cls-2" d="M217.72,270.37c-.77-.43-1.53-.87-2.29-1.32.38-.21.76-.43,1.13-.65l1.16,1.97Z"/>
      <path class="cls-2" d="M202.5,244.29l.46.78c-.15.1-.31.19-.46.28v-1.06Z"/>
      <path class="cls-2" d="M217.72,270.37c-.77-.43-1.53-.87-2.29-1.32.38-.21.76-.43,1.13-.65l1.16,1.97Z"/>
      <path class="cls-1" d="M130.5,260.22v27.15c-4.28-.39-8.5-.98-12.66-1.75-16.42-3.01-31.88-8.81-45.84-16.89,8.78-5.08,16.97-11.06,24.45-17.81,10.61,4.74,22.05,7.93,34.05,9.3Z"/>
      <path class="cls-2" d="M288,144c0,36.51-13.59,69.85-36,95.23-6.73,7.65-14.28,14.58-22.5,20.64-4.15,3.07-8.47,5.92-12.94,8.53-.37.22-.75.44-1.13.65-4.18,2.4-8.5,4.59-12.93,6.57v-30.27c.15-.09.31-.18.46-.28l-.46-.78v-33.98l-10.73,15.58-10.58,15.35-11.68,16.96-12.01,17.44-8.45,12.27-5.05,7.33-13.5,19.6V27.78c4.43-.52,8.93-.78,13.5-.78s9.07.26,13.5.78v200.26l6.72-9.76h0s12.51-18.16,12.51-18.16l25.77-37.41,13.5-19.61h0s13.47-19.55,13.47-19.55l.03.02v100.28c2.16-2.3,4.22-4.69,6.17-7.16h0c15.86-19.97,25.33-45.22,25.33-72.69s-9.47-52.72-25.33-72.68h0c-9.01-11.38-20.11-21.03-32.71-28.39l13.6-23.32h.01c13.33,7.78,25.29,17.65,35.43,29.16,22.41,25.38,36,58.72,36,95.23Z"/>
      <path class="cls-1" d="M157.5.63v27.15c-4.43-.52-8.93-.78-13.5-.78s-9.07.26-13.5.78V.63c4.44-.42,8.95-.63,13.5-.63s9.06.21,13.5.63Z"/>
      <path d="M72,19.27c-.19.11-.38.22-.56.33"/>
      <path d="M96.45,250.92c-7.48,6.75-15.67,12.73-24.45,17.81-.19-.11-.38-.22-.56-.33l13.6-23.33c3.68,2.16,7.48,4.11,11.41,5.85Z"/>
      <path d="M96.45,250.92c-7.48,6.75-15.67,12.73-24.45,17.81-.19-.11-.38-.22-.56-.33l13.6-23.33c3.68,2.16,7.48,4.11,11.41,5.85Z"/>
      <path d="M192.05,37.3c3.75,1.68,7.39,3.56,10.91,5.63l13.6-23.32c-8.8,5.03-17.01,10.97-24.51,17.69ZM202.5,244.29v1.06c.15-.09.31-.18.46-.28l-.46-.78Z"/>
      <path d="M202.96,245.07c-.15.1-.31.19-.46.28v-1.06l.46.78Z"/>
      <path d="M192.05,37.3c3.75,1.68,7.39,3.56,10.91,5.63l13.6-23.32c-8.8,5.03-17.01,10.97-24.51,17.69ZM202.5,244.29v1.06c.15-.09.31-.18.46-.28l-.46-.78Z"/>
      <path d="M130.5.63v27.15c-12,1.37-23.44,4.56-34.05,9.3-3.93,1.74-7.73,3.69-11.41,5.85-34.72,20.28-58.04,57.95-58.04,101.07s23.32,80.79,58.04,101.07l-13.6,23.33C28.71,243.43,0,197.07,0,144S28.71,44.57,71.44,19.6c.18-.11.37-.22.56-.33C89.5,9.14,109.33,2.59,130.5.63Z"/>
      <path d="M72,19.27c-.19.11-.38.22-.56.33"/>
      <path d="M216.56,19.61l-13.6,23.32c-3.52-2.07-7.16-3.95-10.91-5.63,7.5-6.72,15.71-12.66,24.51-17.69Z"/>
      <path d="M96.45,250.92c-7.48,6.75-15.67,12.73-24.45,17.81-.19-.11-.38-.22-.56-.33l13.6-23.33c3.68,2.16,7.48,4.11,11.41,5.85Z"/>
      <path d="M149.05,287.91l-5.05,7.33v-7.24c1.69,0,3.37-.03,5.05-.09Z"/>
      <path d="M202.96,245.07c-.15.1-.31.19-.46.28v-1.06l.46.78Z"/>
      <path d="M288,144c0,36.51-13.59,69.85-36,95.23-6.73,7.65-14.28,14.58-22.5,20.64-4.15,3.07-8.47,5.92-12.94,8.53-.37.22-.75.44-1.13.65-4.18,2.4-8.5,4.59-12.93,6.57v-30.27c.15-.09.31-.18.46-.28l-.46-.78v-33.98l-10.73,15.58-10.58,15.35-11.68,16.96-12.01,17.44-8.45,12.27c-1.68.06-3.36.09-5.05.09v7.24l-13.5,19.6V27.78c4.43-.52,8.93-.78,13.5-.78s9.07.26,13.5.78v200.26l6.72-9.76,12.51-18.16,25.77-37.41,13.5-19.61v-.03h.01s13.46-19.52,13.46-19.52l.03.02v100.28c2.17-2.3,4.23-4.7,6.17-7.17,15.86-19.96,25.33-45.21,25.33-72.68s-9.47-52.72-25.33-72.68c-9-11.38-20.1-21.03-32.71-28.39l13.6-23.32h.01c13.33,7.78,25.29,17.65,35.43,29.16,22.41,25.38,36,58.72,36,95.23Z"/>
      <path d="M202.96,245.07c-.15.1-.31.19-.46.28v-1.06l.46.78Z"/>
      <path d="M149.05,287.91l-5.05,7.33v-7.24c1.69,0,3.37-.03,5.05-.09Z"/>
      <path d="M149.05,287.91l-5.05,7.33v-7.24c1.69,0,3.37-.03,5.05-.09Z"/>
    </g>
  </g>
</svg>