<?xml version="1.0" encoding="UTF-8"?>
<svg id="Ebene_2" data-name="Ebene 2" xmlns="http://www.w3.org/2000/svg" viewBox="0 0 58.44 67.42">
  <defs>
    <style>
      .cls-1 {
        fill: red;
      }
    </style>
  </defs>
  <g id="Ebene_1-2" data-name="Ebene 1">
    <g>
      <circle class="cls-1" cx="29.22" cy="29.21" r="29.21"/>
      <path d="M18.08,50.35l-1.89,5C8.08,51.31,1.97,43.56.39,33.93c-1.34-8.2.87-16.16,5.5-22.31l3.93,3.63s0,0,0,.01c-1.81,2.52-3.1,5.32-3.83,8.32-.75,3.11-.87,6.29-.35,9.48s1.65,6.17,3.35,8.87c1.65,2.61,3.76,4.86,6.28,6.67.9.65,1.84,1.23,2.8,1.74Z"/>
      <path d="M58.41,30.49c-.34,11.13-7.89,21.82-18.31,25.82v-9.79c-4.02,6.2-9.48,14.64-13.54,20.9V.1c.2-.04,5.1-.04,5.32,0v49.33l13.54-20.9v18.25c10.24-8.99,10.16-26.37-.15-35.28l3.07-4.38c6.69,5.72,10.5,14.56,10.07,23.37Z"/>
    </g>
  </g>
</svg>