<?xml version="1.0" encoding="UTF-8"?>
<svg id="Ebene_2" data-name="Ebene 2" xmlns="http://www.w3.org/2000/svg" viewBox="0 0 288 314.21">
  <defs>
    <style>
      .cls-1 {
        fill: #333;
      }
    </style>
  </defs>
  <g id="cw_Kopie" data-name="cw Kopie">
    <g>
      <path class="cls-1" d="M130.5,0v27.15c-12,1.37-23.44,4.56-34.05,9.3-3.93,1.74-7.73,3.69-11.41,5.85-34.72,20.28-58.04,57.95-58.04,101.07s23.32,80.79,58.04,101.07l-13.6,23.33C28.71,242.8,0,196.44,0,143.37S28.71,43.94,71.44,18.97c.18-.11.37-.22.56-.33C89.5,8.51,109.33,1.96,130.5,0Z"/>
      <path class="cls-1" d="M216.56,18.98l-13.6,23.32c-3.52-2.07-7.16-3.95-10.91-5.63,7.5-6.72,15.71-12.66,24.51-17.69Z"/>
      <path class="cls-1" d="M96.45,250.29c-7.48,6.75-15.67,12.73-24.45,17.81-.19-.11-.38-.22-.56-.33l13.6-23.33c3.68,2.16,7.48,4.11,11.41,5.85Z"/>
      <path class="cls-1" d="M288,143.37c0,36.51-13.59,69.85-36,95.23-6.73,7.65-14.28,14.58-22.5,20.64-4.15,3.07-8.47,5.92-12.94,8.53-.37.22-.75.44-1.13.65-4.18,2.4-8.5,4.59-12.93,6.57v-30.27c.15-.09.31-.18.46-.28l-.46-.78v-33.98l-10.73,15.58-10.58,15.35-11.68,16.96-12.01,17.44-8.45,12.27c-1.68.06-3.36.09-5.05.09v7.24l-13.5,19.6V27.15c4.43-.52,8.93-.78,13.5-.78s9.07.26,13.5.78v200.26l6.72-9.76,12.51-18.16,25.77-37.41,13.5-19.61v-.03h.01s13.46-19.52,13.46-19.52l.03.02v100.28c2.17-2.3,4.23-4.7,6.17-7.17,15.86-19.96,25.33-45.21,25.33-72.68s-9.47-52.72-25.33-72.68c-9-11.38-20.1-21.03-32.71-28.39l13.6-23.32h.01c13.33,7.78,25.29,17.65,35.43,29.16,22.41,25.38,36,58.72,36,95.23Z"/>
    </g>
  </g>
</svg>