<?xml version="1.0" encoding="UTF-8" ?>
<svg version="1.1" viewBox="0 0 24 24" width="24" height="24" xmlns="http://www.w3.org/2000/svg" shape-rendering="crispEdges">
<rect x="11" y="2" width="2" height="1" fill="#000000" />
<rect x="10" y="3" width="1" height="1" fill="#000000" />
<rect x="11" y="3" width="2" height="5" fill="#FF00AA" />
<rect x="13" y="3" width="1" height="1" fill="#000000" />
<rect x="9" y="4" width="1" height="2" fill="#000000" />
<rect x="10" y="4" width="1" height="2" fill="#FF00AA" />
<rect x="13" y="4" width="1" height="2" fill="#FF00AA" />
<rect x="14" y="4" width="1" height="2" fill="#000000" />
<rect x="10" y="6" width="1" height="1" fill="#000000" />
<rect x="13" y="6" width="1" height="1" fill="#000000" />
<rect x="9" y="7" width="1" height="1" fill="#000000" />
<rect x="10" y="7" width="1" height="12" fill="#FF00AA" />
<rect x="13" y="7" width="1" height="1" fill="#FF00AA" />
<rect x="14" y="7" width="1" height="1" fill="#000000" />
<rect x="8" y="8" width="1" height="1" fill="#000000" />
<rect x="9" y="8" width="1" height="1" fill="#FF00AA" />
<rect x="11" y="8" width="1" height="1" fill="#000000" />
<rect x="12" y="8" width="1" height="10" fill="#FF00AA" />
<rect x="13" y="8" width="1" height="1" fill="#000000" />
<rect x="14" y="8" width="1" height="1" fill="#FF00AA" />
<rect x="15" y="8" width="1" height="1" fill="#000000" />
<rect x="9" y="9" width="1" height="1" fill="#000000" />
<rect x="11" y="9" width="1" height="1" fill="#FF00AA" />
<rect x="13" y="9" width="1" height="1" fill="#FF00AA" />
<rect x="14" y="9" width="1" height="1" fill="#000000" />
<rect x="8" y="10" width="1" height="2" fill="#000000" />
<rect x="9" y="10" width="1" height="4" fill="#FF00AA" />
<rect x="11" y="10" width="1" height="2" fill="#000000" />
<rect x="13" y="10" width="1" height="2" fill="#000000" />
<rect x="14" y="10" width="1" height="4" fill="#FF00AA" />
<rect x="15" y="10" width="1" height="2" fill="#000000" />
<rect x="7" y="12" width="1" height="2" fill="#000000" />
<rect x="8" y="12" width="1" height="2" fill="#FF00AA" />
<rect x="11" y="12" width="1" height="8" fill="#FF00AA" />
<rect x="13" y="12" width="1" height="7" fill="#FF00AA" />
<rect x="15" y="12" width="1" height="2" fill="#FF00AA" />
<rect x="16" y="12" width="1" height="2" fill="#000000" />
<rect x="8" y="14" width="2" height="1" fill="#000000" />
<rect x="14" y="14" width="2" height="1" fill="#000000" />
<rect x="9" y="15" width="1" height="1" fill="#000000" />
<rect x="14" y="15" width="1" height="1" fill="#000000" />
<rect x="5" y="16" width="1" height="1" fill="#000000" />
<rect x="8" y="16" width="1" height="2" fill="#000000" />
<rect x="9" y="16" width="1" height="4" fill="#FF00AA" />
<rect x="14" y="16" width="1" height="2" fill="#FF00AA" />
<rect x="15" y="16" width="1" height="2" fill="#000000" />
<rect x="18" y="16" width="1" height="1" fill="#000000" />
<rect x="4" y="17" width="1" height="1" fill="#000000" />
<rect x="5" y="17" width="1" height="2" fill="#FF00AA" />
<rect x="6" y="17" width="1" height="1" fill="#000000" />
<rect x="17" y="17" width="1" height="1" fill="#000000" />
<rect x="18" y="17" width="1" height="2" fill="#FF00AA" />
<rect x="19" y="17" width="1" height="1" fill="#000000" />
<rect x="3" y="18" width="1" height="1" fill="#000000" />
<rect x="4" y="18" width="1" height="4" fill="#FF00AA" />
<rect x="6" y="18" width="1" height="1" fill="#FF00AA" />
<rect x="7" y="18" width="1" height="1" fill="#000000" />
<rect x="8" y="18" width="1" height="4" fill="#FF00AA" />
<rect x="12" y="18" width="1" height="1" fill="#000000" />
<rect x="14" y="18" width="1" height="1" fill="#000000" />
<rect x="15" y="18" width="1" height="1" fill="#FF00AA" />
<rect x="16" y="18" width="1" height="1" fill="#000000" />
<rect x="17" y="18" width="1" height="2" fill="#FF00AA" />
<rect x="19" y="18" width="1" height="1" fill="#FF00AA" />
<rect x="20" y="18" width="1" height="1" fill="#000000" />
<rect x="2" y="19" width="1" height="1" fill="#000000" />
<rect x="3" y="19" width="1" height="1" fill="#FF00AA" />
<rect x="5" y="19" width="2" height="1" fill="#000000" />
<rect x="7" y="19" width="1" height="1" fill="#FF00AA" />
<rect x="10" y="19" width="1" height="1" fill="#000000" />
<rect x="12" y="19" width="1" height="1" fill="#FF00AA" />
<rect x="13" y="19" width="1" height="1" fill="#000000" />
<rect x="14" y="19" width="1" height="1" fill="#FF00AA" />
<rect x="15" y="19" width="1" height="2" fill="#000000" />
<rect x="16" y="19" width="1" height="2" fill="#FF00AA" />
<rect x="18" y="19" width="2" height="1" fill="#000000" />
<rect x="20" y="19" width="1" height="1" fill="#FF00AA" />
<rect x="21" y="19" width="1" height="1" fill="#000000" />
<rect x="3" y="20" width="1" height="2" fill="#000000" />
<rect x="5" y="20" width="1" height="2" fill="#FF00AA" />
<rect x="6" y="20" width="2" height="1" fill="#000000" />
<rect x="9" y="20" width="1" height="1" fill="#000000" />
<rect x="10" y="20" width="1" height="1" fill="#FF00AA" />
<rect x="11" y="20" width="2" height="1" fill="#000000" />
<rect x="13" y="20" width="1" height="1" fill="#FF00AA" />
<rect x="14" y="20" width="1" height="1" fill="#000000" />
<rect x="17" y="20" width="2" height="1" fill="#000000" />
<rect x="19" y="20" width="1" height="2" fill="#FF00AA" />
<rect x="20" y="20" width="1" height="3" fill="#000000" />
<rect x="6" y="21" width="2" height="1" fill="#FF00AA" />
<rect x="9" y="21" width="1" height="1" fill="#FF00AA" />
<rect x="10" y="21" width="1" height="1" fill="#000000" />
<rect x="13" y="21" width="1" height="1" fill="#000000" />
<rect x="14" y="21" width="2" height="1" fill="#FF00AA" />
<rect x="16" y="21" width="1" height="1" fill="#000000" />
<rect x="17" y="21" width="2" height="1" fill="#FF00AA" />
<rect x="4" y="22" width="6" height="1" fill="#000000" />
<rect x="14" y="22" width="2" height="1" fill="#000000" />
<rect x="17" y="22" width="3" height="1" fill="#000000" />
</svg>