<?xml version="1.0" encoding="UTF-8" ?>
<svg version="1.1" width="24" height="24" xmlns="http://www.w3.org/2000/svg" shape-rendering="crispEdges">
<rect x="11" y="2" width="2" height="1" fill="#000000" />
<rect x="14" y="2" width="3" height="1" fill="#000000" />
<rect x="9" y="3" width="2" height="1" fill="#000000" />
<rect x="11" y="3" width="2" height="1" fill="#FF00AA" />
<rect x="13" y="3" width="1" height="1" fill="#000000" />
<rect x="14" y="3" width="3" height="2" fill="#FF00AA" />
<rect x="17" y="3" width="1" height="2" fill="#000000" />
<rect x="8" y="4" width="1" height="1" fill="#000000" />
<rect x="9" y="4" width="3" height="1" fill="#FF00AA" />
<rect x="12" y="4" width="1" height="1" fill="#000000" />
<rect x="13" y="4" width="1" height="1" fill="#FF00AA" />
<rect x="7" y="5" width="1" height="1" fill="#000000" />
<rect x="8" y="5" width="2" height="1" fill="#FF00AA" />
<rect x="10" y="5" width="2" height="1" fill="#000000" />
<rect x="13" y="5" width="4" height="1" fill="#000000" />
<rect x="17" y="5" width="1" height="1" fill="#FF00AA" />
<rect x="18" y="5" width="1" height="1" fill="#000000" />
<rect x="6" y="6" width="1" height="1" fill="#000000" />
<rect x="7" y="6" width="2" height="1" fill="#FF00AA" />
<rect x="9" y="6" width="1" height="1" fill="#000000" />
<rect x="11" y="6" width="1" height="1" fill="#000000" />
<rect x="17" y="6" width="1" height="2" fill="#000000" />
<rect x="18" y="6" width="1" height="2" fill="#FF00AA" />
<rect x="19" y="6" width="1" height="2" fill="#000000" />
<rect x="5" y="7" width="1" height="1" fill="#000000" />
<rect x="6" y="7" width="2" height="1" fill="#FF00AA" />
<rect x="8" y="7" width="1" height="1" fill="#000000" />
<rect x="10" y="7" width="1" height="1" fill="#000000" />
<rect x="11" y="7" width="1" height="2" fill="#FF00AA" />
<rect x="12" y="7" width="1" height="2" fill="#000000" />
<rect x="4" y="8" width="1" height="1" fill="#000000" />
<rect x="5" y="8" width="2" height="1" fill="#FF00AA" />
<rect x="7" y="8" width="1" height="1" fill="#000000" />
<rect x="9" y="8" width="1" height="1" fill="#000000" />
<rect x="10" y="8" width="1" height="1" fill="#FF00AA" />
<rect x="16" y="8" width="1" height="9" fill="#000000" />
<rect x="17" y="8" width="1" height="9" fill="#FF00AA" />
<rect x="18" y="8" width="1" height="1" fill="#000000" />
<rect x="19" y="8" width="1" height="9" fill="#FF00AA" />
<rect x="20" y="8" width="1" height="9" fill="#000000" />
<rect x="3" y="9" width="1" height="4" fill="#000000" />
<rect x="4" y="9" width="2" height="4" fill="#FF00AA" />
<rect x="6" y="9" width="1" height="4" fill="#000000" />
<rect x="10" y="9" width="2" height="1" fill="#000000" />
<rect x="18" y="9" width="1" height="1" fill="#FF00AA" />
<rect x="7" y="10" width="1" height="1" fill="#000000" />
<rect x="10" y="10" width="1" height="1" fill="#000000" />
<rect x="12" y="10" width="3" height="1" fill="#000000" />
<rect x="18" y="10" width="1" height="1" fill="#000000" />
<rect x="7" y="11" width="1" height="2" fill="#FF00AA" />
<rect x="8" y="11" width="2" height="2" fill="#000000" />
<rect x="10" y="11" width="1" height="2" fill="#FF00AA" />
<rect x="11" y="11" width="1" height="1" fill="#000000" />
<rect x="12" y="11" width="3" height="1" fill="#FF00AA" />
<rect x="15" y="11" width="1" height="1" fill="#000000" />
<rect x="18" y="11" width="1" height="1" fill="#FF00AA" />
<rect x="11" y="12" width="1" height="1" fill="#FF00AA" />
<rect x="12" y="12" width="1" height="1" fill="#000000" />
<rect x="13" y="12" width="1" height="2" fill="#FF00AA" />
<rect x="14" y="12" width="1" height="2" fill="#000000" />
<rect x="18" y="12" width="1" height="1" fill="#000000" />
<rect x="4" y="13" width="1" height="1" fill="#000000" />
<rect x="5" y="13" width="2" height="1" fill="#FF00AA" />
<rect x="7" y="13" width="2" height="1" fill="#000000" />
<rect x="9" y="13" width="1" height="1" fill="#FF00AA" />
<rect x="10" y="13" width="2" height="1" fill="#000000" />
<rect x="12" y="13" width="1" height="2" fill="#FF00AA" />
<rect x="18" y="13" width="1" height="1" fill="#FF00AA" />
<rect x="5" y="14" width="1" height="1" fill="#000000" />
<rect x="6" y="14" width="3" height="1" fill="#FF00AA" />
<rect x="9" y="14" width="2" height="1" fill="#000000" />
<rect x="11" y="14" width="1" height="2" fill="#FF00AA" />
<rect x="13" y="14" width="1" height="1" fill="#000000" />
<rect x="18" y="14" width="1" height="1" fill="#000000" />
<rect x="6" y="15" width="4" height="1" fill="#000000" />
<rect x="10" y="15" width="1" height="7" fill="#FF00AA" />
<rect x="12" y="15" width="1" height="2" fill="#000000" />
<rect x="18" y="15" width="1" height="1" fill="#FF00AA" />
<rect x="8" y="16" width="1" height="1" fill="#000000" />
<rect x="9" y="16" width="1" height="6" fill="#FF00AA" />
<rect x="11" y="16" width="1" height="1" fill="#000000" />
<rect x="13" y="16" width="3" height="1" fill="#000000" />
<rect x="18" y="16" width="1" height="1" fill="#000000" />
<rect x="6" y="17" width="2" height="1" fill="#000000" />
<rect x="8" y="17" width="1" height="5" fill="#FF00AA" />
<rect x="11" y="17" width="6" height="2" fill="#FF00AA" />
<rect x="17" y="17" width="1" height="1" fill="#000000" />
<rect x="18" y="17" width="1" height="1" fill="#FF00AA" />
<rect x="19" y="17" width="1" height="1" fill="#000000" />
<rect x="5" y="18" width="1" height="1" fill="#000000" />
<rect x="6" y="18" width="2" height="4" fill="#FF00AA" />
<rect x="17" y="18" width="1" height="1" fill="#FF00AA" />
<rect x="18" y="18" width="1" height="1" fill="#000000" />
<rect x="4" y="19" width="1" height="2" fill="#000000" />
<rect x="5" y="19" width="1" height="3" fill="#FF00AA" />
<rect x="11" y="19" width="1" height="2" fill="#000000" />
<rect x="12" y="19" width="1" height="2" fill="#FF00AA" />
<rect x="13" y="19" width="1" height="2" fill="#000000" />
<rect x="14" y="19" width="1" height="2" fill="#FF00AA" />
<rect x="15" y="19" width="1" height="2" fill="#000000" />
<rect x="16" y="19" width="1" height="2" fill="#FF00AA" />
<rect x="17" y="19" width="1" height="2" fill="#000000" />
<rect x="18" y="19" width="1" height="3" fill="#FF00AA" />
<rect x="19" y="19" width="1" height="2" fill="#000000" />
<rect x="3" y="21" width="1" height="1" fill="#000000" />
<rect x="4" y="21" width="1" height="1" fill="#FF00AA" />
<rect x="11" y="21" width="1" height="1" fill="#FF00AA" />
<rect x="12" y="21" width="1" height="1" fill="#000000" />
<rect x="13" y="21" width="1" height="1" fill="#FF00AA" />
<rect x="14" y="21" width="1" height="1" fill="#000000" />
<rect x="15" y="21" width="1" height="1" fill="#FF00AA" />
<rect x="16" y="21" width="1" height="1" fill="#000000" />
<rect x="17" y="21" width="1" height="1" fill="#FF00AA" />
<rect x="19" y="21" width="1" height="1" fill="#FF00AA" />
<rect x="20" y="21" width="1" height="1" fill="#000000" />
<rect x="4" y="22" width="8" height="1" fill="#000000" />
<rect x="13" y="22" width="1" height="1" fill="#000000" />
<rect x="15" y="22" width="1" height="1" fill="#000000" />
<rect x="17" y="22" width="3" height="1" fill="#000000" />
</svg>