<?xml version="1.0" encoding="UTF-8" ?>
<svg version="1.1" width="24" height="24" xmlns="http://www.w3.org/2000/svg" shape-rendering="crispEdges">
<rect x="11" y="3" width="2" height="1" fill="#000000" />
<rect x="9" y="4" width="2" height="1" fill="#000000" />
<rect x="11" y="4" width="2" height="2" fill="#FF00AA" />
<rect x="13" y="4" width="2" height="1" fill="#000000" />
<rect x="8" y="5" width="1" height="1" fill="#000000" />
<rect x="9" y="5" width="2" height="2" fill="#FF00AA" />
<rect x="13" y="5" width="2" height="1" fill="#FF00AA" />
<rect x="15" y="5" width="1" height="1" fill="#000000" />
<rect x="7" y="6" width="1" height="2" fill="#000000" />
<rect x="8" y="6" width="1" height="2" fill="#FF00AA" />
<rect x="11" y="6" width="4" height="1" fill="#000000" />
<rect x="15" y="6" width="1" height="2" fill="#FF00AA" />
<rect x="16" y="6" width="1" height="2" fill="#000000" />
<rect x="9" y="7" width="1" height="5" fill="#FF00AA" />
<rect x="10" y="7" width="1" height="1" fill="#000000" />
<rect x="14" y="7" width="1" height="1" fill="#000000" />
<rect x="8" y="8" width="1" height="2" fill="#000000" />
<rect x="10" y="8" width="1" height="14" fill="#FF00AA" />
<rect x="11" y="8" width="3" height="1" fill="#000000" />
<rect x="14" y="8" width="1" height="2" fill="#FF00AA" />
<rect x="15" y="8" width="1" height="2" fill="#000000" />
<rect x="11" y="9" width="3" height="1" fill="#FF00AA" />
<rect x="7" y="10" width="1" height="1" fill="#000000" />
<rect x="8" y="10" width="1" height="1" fill="#FF00AA" />
<rect x="11" y="10" width="1" height="1" fill="#FF00AA" />
<rect x="12" y="10" width="1" height="1" fill="#000000" />
<rect x="13" y="10" width="1" height="1" fill="#FF00AA" />
<rect x="14" y="10" width="1" height="1" fill="#000000" />
<rect x="15" y="10" width="1" height="1" fill="#FF00AA" />
<rect x="16" y="10" width="1" height="1" fill="#000000" />
<rect x="8" y="11" width="1" height="1" fill="#000000" />
<rect x="11" y="11" width="1" height="1" fill="#000000" />
<rect x="12" y="11" width="1" height="5" fill="#FF00AA" />
<rect x="13" y="11" width="1" height="1" fill="#000000" />
<rect x="14" y="11" width="1" height="1" fill="#FF00AA" />
<rect x="15" y="11" width="1" height="1" fill="#000000" />
<rect x="9" y="12" width="1" height="3" fill="#000000" />
<rect x="11" y="12" width="1" height="7" fill="#FF00AA" />
<rect x="13" y="12" width="1" height="3" fill="#FF00AA" />
<rect x="14" y="12" width="1" height="3" fill="#000000" />
<rect x="8" y="15" width="1" height="1" fill="#000000" />
<rect x="9" y="15" width="1" height="7" fill="#FF00AA" />
<rect x="13" y="15" width="1" height="1" fill="#000000" />
<rect x="14" y="15" width="1" height="1" fill="#FF00AA" />
<rect x="15" y="15" width="1" height="1" fill="#000000" />
<rect x="7" y="16" width="1" height="1" fill="#000000" />
<rect x="8" y="16" width="1" height="1" fill="#FF00AA" />
<rect x="12" y="16" width="1" height="1" fill="#000000" />
<rect x="13" y="16" width="1" height="3" fill="#FF00AA" />
<rect x="14" y="16" width="1" height="1" fill="#000000" />
<rect x="15" y="16" width="1" height="1" fill="#FF00AA" />
<rect x="16" y="16" width="1" height="1" fill="#000000" />
<rect x="8" y="17" width="1" height="1" fill="#000000" />
<rect x="12" y="17" width="1" height="1" fill="#FF00AA" />
<rect x="14" y="17" width="1" height="1" fill="#FF00AA" />
<rect x="15" y="17" width="1" height="1" fill="#000000" />
<rect x="7" y="18" width="1" height="1" fill="#000000" />
<rect x="8" y="18" width="1" height="4" fill="#FF00AA" />
<rect x="12" y="18" width="1" height="1" fill="#000000" />
<rect x="14" y="18" width="1" height="1" fill="#000000" />
<rect x="15" y="18" width="1" height="1" fill="#FF00AA" />
<rect x="16" y="18" width="1" height="1" fill="#000000" />
<rect x="6" y="19" width="1" height="2" fill="#000000" />
<rect x="7" y="19" width="1" height="3" fill="#FF00AA" />
<rect x="11" y="19" width="1" height="2" fill="#000000" />
<rect x="12" y="19" width="1" height="2" fill="#FF00AA" />
<rect x="13" y="19" width="1" height="2" fill="#000000" />
<rect x="14" y="19" width="1" height="2" fill="#FF00AA" />
<rect x="15" y="19" width="1" height="2" fill="#000000" />
<rect x="16" y="19" width="1" height="3" fill="#FF00AA" />
<rect x="17" y="19" width="1" height="2" fill="#000000" />
<rect x="5" y="21" width="1" height="1" fill="#000000" />
<rect x="6" y="21" width="1" height="1" fill="#FF00AA" />
<rect x="11" y="21" width="1" height="1" fill="#FF00AA" />
<rect x="12" y="21" width="1" height="1" fill="#000000" />
<rect x="13" y="21" width="1" height="1" fill="#FF00AA" />
<rect x="14" y="21" width="1" height="1" fill="#000000" />
<rect x="15" y="21" width="1" height="1" fill="#FF00AA" />
<rect x="17" y="21" width="1" height="1" fill="#FF00AA" />
<rect x="18" y="21" width="1" height="1" fill="#000000" />
<rect x="6" y="22" width="6" height="1" fill="#000000" />
<rect x="13" y="22" width="1" height="1" fill="#000000" />
<rect x="15" y="22" width="3" height="1" fill="#000000" />
</svg>